<?xml version="1.0" encoding="UTF-8"?>
<svg xmlns="http://www.w3.org/2000/svg" viewBox="0 0 760 210" width="100%" role="img" aria-label="commit activity chart">
<defs>
  <linearGradient id="ag" x1="0" y1="0" x2="0" y2="1">
    <stop offset="0%" stop-color="#00ff41" stop-opacity="0.20"/>
    <stop offset="100%" stop-color="#00ff41" stop-opacity="0.02"/>
  </linearGradient>
</defs>
<style>text{font-family:ui-monospace,SFMono-Regular,Consolas,"Liberation Mono",monospace;fill:#8b949e;}</style>
<line x1="62" y1="162.0" x2="740" y2="162.0" stroke="#21262d" stroke-width="1"/>
<text x="56" y="166.0" font-size="10" text-anchor="end">0</text>
<line x1="62" y1="132.8" x2="740" y2="132.8" stroke="#21262d" stroke-width="1"/>
<text x="56" y="136.8" font-size="10" text-anchor="end">7</text>
<line x1="62" y1="103.6" x2="740" y2="103.6" stroke="#21262d" stroke-width="1"/>
<text x="56" y="107.6" font-size="10" text-anchor="end">14</text>
<line x1="62" y1="74.4" x2="740" y2="74.4" stroke="#21262d" stroke-width="1"/>
<text x="56" y="78.4" font-size="10" text-anchor="end">21</text>
<line x1="62" y1="45.2" x2="740" y2="45.2" stroke="#21262d" stroke-width="1"/>
<text x="56" y="49.2" font-size="10" text-anchor="end">28</text>
<line x1="62" y1="16.0" x2="740" y2="16.0" stroke="#21262d" stroke-width="1"/>
<text x="56" y="20.0" font-size="10" text-anchor="end">35</text>
<line x1="136.5" y1="16" x2="136.5" y2="162" stroke="#30363d" stroke-width="1" stroke-dasharray="3,3"/>
<line x1="360.0" y1="16" x2="360.0" y2="162" stroke="#30363d" stroke-width="1" stroke-dasharray="3,3"/>
<line x1="591.0" y1="16" x2="591.0" y2="162" stroke="#30363d" stroke-width="1" stroke-dasharray="3,3"/>
<path d="M 62.0,162 L 62.0,107.8 L 69.5,162.0 L 76.9,145.3 L 84.4,162.0 L 91.8,128.6 L 99.3,162.0 L 106.7,153.7 L 114.2,20.2 L 121.6,145.3 L 129.1,162.0 L 136.5,162.0 L 144.0,162.0 L 151.4,162.0 L 158.9,162.0 L 166.3,162.0 L 173.8,162.0 L 181.2,162.0 L 188.7,162.0 L 196.1,95.3 L 203.6,145.3 L 211.0,162.0 L 218.5,162.0 L 225.9,162.0 L 233.4,162.0 L 240.8,45.2 L 248.3,157.8 L 255.7,162.0 L 263.2,162.0 L 270.6,107.8 L 278.1,162.0 L 285.5,162.0 L 293.0,149.5 L 300.4,157.8 L 307.9,162.0 L 315.3,162.0 L 322.8,162.0 L 330.2,162.0 L 337.7,157.8 L 345.1,162.0 L 352.6,162.0 L 360.0,162.0 L 367.5,162.0 L 374.9,162.0 L 382.4,162.0 L 389.8,162.0 L 397.3,70.2 L 404.7,99.4 L 412.2,149.5 L 419.6,137.0 L 427.1,137.0 L 434.5,153.7 L 442.0,162.0 L 449.4,162.0 L 456.9,162.0 L 464.3,149.5 L 471.8,157.8 L 479.2,162.0 L 486.7,132.8 L 494.1,149.5 L 501.6,162.0 L 509.0,162.0 L 516.5,157.8 L 523.9,162.0 L 531.4,162.0 L 538.8,162.0 L 546.3,162.0 L 553.7,162.0 L 561.2,124.5 L 568.6,162.0 L 576.1,162.0 L 583.5,162.0 L 591.0,162.0 L 598.4,141.1 L 605.9,162.0 L 613.3,124.5 L 620.8,137.0 L 628.2,78.6 L 635.7,162.0 L 643.1,145.3 L 650.6,137.0 L 658.0,137.0 L 665.5,157.8 L 672.9,107.8 L 680.4,153.7 L 687.8,162.0 L 695.3,162.0 L 702.7,162.0 L 710.2,157.8 L 717.6,162.0 L 725.1,162.0 L 732.5,162.0 L 740.0,162.0 L 740.0,162 Z" fill="url(#ag)"/>
<polyline points="62.0,107.8 69.5,162.0 76.9,145.3 84.4,162.0 91.8,128.6 99.3,162.0 106.7,153.7 114.2,20.2 121.6,145.3 129.1,162.0 136.5,162.0 144.0,162.0 151.4,162.0 158.9,162.0 166.3,162.0 173.8,162.0 181.2,162.0 188.7,162.0 196.1,95.3 203.6,145.3 211.0,162.0 218.5,162.0 225.9,162.0 233.4,162.0 240.8,45.2 248.3,157.8 255.7,162.0 263.2,162.0 270.6,107.8 278.1,162.0 285.5,162.0 293.0,149.5 300.4,157.8 307.9,162.0 315.3,162.0 322.8,162.0 330.2,162.0 337.7,157.8 345.1,162.0 352.6,162.0 360.0,162.0 367.5,162.0 374.9,162.0 382.4,162.0 389.8,162.0 397.3,70.2 404.7,99.4 412.2,149.5 419.6,137.0 427.1,137.0 434.5,153.7 442.0,162.0 449.4,162.0 456.9,162.0 464.3,149.5 471.8,157.8 479.2,162.0 486.7,132.8 494.1,149.5 501.6,162.0 509.0,162.0 516.5,157.8 523.9,162.0 531.4,162.0 538.8,162.0 546.3,162.0 553.7,162.0 561.2,124.5 568.6,162.0 576.1,162.0 583.5,162.0 591.0,162.0 598.4,141.1 605.9,162.0 613.3,124.5 620.8,137.0 628.2,78.6 635.7,162.0 643.1,145.3 650.6,137.0 658.0,137.0 665.5,157.8 672.9,107.8 680.4,153.7 687.8,162.0 695.3,162.0 702.7,162.0 710.2,157.8 717.6,162.0 725.1,162.0 732.5,162.0 740.0,162.0" fill="none" stroke="#00ff41" stroke-width="1.6" stroke-linejoin="round" stroke-linecap="round"/>
<circle cx="62.0" cy="107.8" r="2.5" fill="#00ff41"/>
<circle cx="91.8" cy="128.6" r="2.5" fill="#00ff41"/>
<circle cx="114.2" cy="20.2" r="2.5" fill="#00ff41"/>
<circle cx="196.1" cy="95.3" r="2.5" fill="#00ff41"/>
<circle cx="240.8" cy="45.2" r="2.5" fill="#00ff41"/>
<circle cx="270.6" cy="107.8" r="2.5" fill="#00ff41"/>
<circle cx="397.3" cy="70.2" r="2.5" fill="#00ff41"/>
<circle cx="404.7" cy="99.4" r="2.5" fill="#00ff41"/>
<circle cx="419.6" cy="137.0" r="2.5" fill="#00ff41"/>
<circle cx="427.1" cy="137.0" r="2.5" fill="#00ff41"/>
<circle cx="486.7" cy="132.8" r="2.5" fill="#00ff41"/>
<circle cx="561.2" cy="124.5" r="2.5" fill="#00ff41"/>
<circle cx="598.4" cy="141.1" r="2.5" fill="#00ff41"/>
<circle cx="613.3" cy="124.5" r="2.5" fill="#00ff41"/>
<circle cx="620.8" cy="137.0" r="2.5" fill="#00ff41"/>
<circle cx="628.2" cy="78.6" r="2.5" fill="#00ff41"/>
<circle cx="650.6" cy="137.0" r="2.5" fill="#00ff41"/>
<circle cx="658.0" cy="137.0" r="2.5" fill="#00ff41"/>
<circle cx="672.9" cy="107.8" r="2.5" fill="#00ff41"/>
<line x1="62" y1="162" x2="740" y2="162" stroke="#30363d" stroke-width="1"/>
<line x1="62" y1="16" x2="62" y2="162" stroke="#30363d" stroke-width="1"/>
<text x="95.5" y="176" font-size="11" text-anchor="middle">Mar '26</text>
<text x="244.5" y="176" font-size="11" text-anchor="middle">Apr</text>
<text x="471.8" y="176" font-size="11" text-anchor="middle">May</text>
<text x="661.8" y="176" font-size="11" text-anchor="middle">Jun</text>
<text x="401.0" y="191" font-size="10" text-anchor="middle" fill="#6e7681">commit date</text>
<text x="10" y="89.0" font-size="10" text-anchor="middle" fill="#6e7681" transform="rotate(-90 10 89.0)">commits / day</text>
</svg>